<svg width="61" height="60" viewBox="0 0 61 60" fill="none" xmlns="http://www.w3.org/2000/svg">
<rect x="0.625" width="60" height="60" rx="30" fill="#457EFF" fill-opacity="0.14"/>
<path d="M40.3501 37.1539C38.2998 37.6462 36.1595 37.6224 34.1207 37.0845C32.0819 36.5466 30.2083 35.5115 28.6677 34.0719C27.1272 32.6323 25.9677 30.8331 25.2931 28.8354C24.6185 26.8377 24.45 24.7038 24.8024 22.625C24.7488 22.6768 24.6922 22.7254 24.6329 22.7705C24.2129 23.09 23.6879 23.2085 22.6379 23.4455L21.6854 23.6615C17.9954 24.497 16.1504 24.914 15.7109 26.3255C15.2728 27.7355 16.5299 29.207 19.0454 32.1484L19.6964 32.9089C20.4104 33.7444 20.7689 34.1629 20.9294 34.6789C21.0899 35.1964 21.0359 35.7544 20.9279 36.8689L20.8289 37.8844C20.4494 41.8099 20.2589 43.7719 21.4079 44.6434C22.5569 45.5164 24.2849 44.7214 27.738 43.1299L28.6335 42.7189C29.6145 42.2659 30.105 42.0409 30.6255 42.0409C31.146 42.0409 31.6365 42.2659 32.619 42.7189L33.5115 43.1299C36.966 44.7199 38.6941 45.5149 39.8416 44.6449C40.9921 43.7719 40.8016 41.8099 40.4221 37.8844L40.3501 37.1539Z" fill="#457EFF"/>
<path opacity="0.5" d="M26.357 20.112L25.865 20.994C25.325 21.963 25.055 22.4475 24.635 22.767C24.695 22.722 24.7505 22.674 24.8045 22.6215C24.4519 24.7005 24.6205 26.8344 25.2951 28.8323C25.9698 30.8302 27.1294 32.6295 28.6702 34.0692C30.2109 35.5088 32.0847 36.5439 34.1237 37.0816C36.1627 37.6194 38.3033 37.643 40.3536 37.1504L40.3236 36.8654C40.2171 35.7509 40.1631 35.1929 40.3236 34.6754C40.4841 34.1594 40.8411 33.7409 41.5566 32.9054L42.2076 32.1449C44.7232 29.2049 45.9802 27.7334 45.5407 26.3219C45.1027 24.9104 43.2577 24.4919 39.5676 23.658L38.6136 23.442C37.5651 23.205 37.0401 23.0865 36.6186 22.767C36.1986 22.4475 35.9286 21.963 35.3886 20.994L34.8981 20.112C32.9976 16.704 32.048 15 30.6275 15C29.207 15 28.2575 16.704 26.357 20.112Z" fill="#457EFF"/>
</svg>
