<svg width="61" height="60" viewBox="0 0 61 60" fill="none" xmlns="http://www.w3.org/2000/svg">
<rect x="0.375" width="60" height="60" rx="30" fill="#457EFF" fill-opacity="0.14"/>
<path d="M30.3741 15C30.3741 15 37.2972 18.1385 37.2972 31.1538C37.2972 34.9846 35.6972 39.7231 34.8356 41.9231H25.9126C25.051 39.7231 23.451 34.9846 23.451 31.1538C23.451 18.1385 30.3741 15 30.3741 15ZM33.451 28.0769C33.451 26.3846 32.0664 25 30.3741 25C28.6818 25 27.2972 26.3846 27.2972 28.0769C27.2972 29.7692 28.6818 31.1538 30.3741 31.1538C32.0664 31.1538 33.451 29.7692 33.451 28.0769ZM23.7433 42.7231C23.0049 40.8308 21.4049 36.3077 21.1741 32.1538L19.4356 33.3077C18.5741 33.8923 18.0664 34.8462 18.0664 35.8769V45L23.7433 42.7231ZM42.6818 45V35.8769C42.6818 34.8462 42.1741 33.8923 41.3126 33.3231L39.5741 32.1692C39.3433 36.3077 37.7279 40.8462 37.0049 42.7385L42.6818 45Z" fill="#457EFF"/>
</svg>
