<svg width="61" height="60" viewBox="0 0 61 60" fill="none" xmlns="http://www.w3.org/2000/svg">
<rect x="0.125" width="60" height="60" rx="30" fill="#457EFF" fill-opacity="0.14"/>
<path d="M30.125 17.5C37.0287 17.5 42.625 23.0963 42.625 30C42.625 36.9037 37.0287 42.5 30.125 42.5C23.2213 42.5 17.625 36.9037 17.625 30C17.625 23.0963 23.2213 17.5 30.125 17.5ZM30.125 20C27.4728 20 24.9293 21.0536 23.0539 22.9289C21.1786 24.8043 20.125 27.3478 20.125 30C20.125 32.6522 21.1786 35.1957 23.0539 37.0711C24.9293 38.9464 27.4728 40 30.125 40C32.7772 40 35.3207 38.9464 37.1961 37.0711C39.0714 35.1957 40.125 32.6522 40.125 30C40.125 27.3478 39.0714 24.8043 37.1961 22.9289C35.3207 21.0536 32.7772 20 30.125 20ZM30.125 22.5C30.4312 22.5 30.7267 22.6124 30.9555 22.8159C31.1843 23.0193 31.3304 23.2997 31.3663 23.6037L31.375 23.75V29.4825L34.7587 32.8663C34.9829 33.0912 35.1131 33.393 35.1228 33.7105C35.1325 34.0279 35.021 34.3371 34.8109 34.5753C34.6009 34.8136 34.3081 34.9629 33.9919 34.993C33.6758 35.0231 33.36 34.9318 33.1088 34.7375L32.9913 34.6337L29.2413 30.8837C29.047 30.6893 28.9222 30.4363 28.8862 30.1637L28.875 30V23.75C28.875 23.4185 29.0067 23.1005 29.2411 22.8661C29.4755 22.6317 29.7935 22.5 30.125 22.5Z" fill="#457EFF"/>
</svg>
