<svg width="89" height="22" viewBox="0 0 89 22" fill="none" xmlns="http://www.w3.org/2000/svg">
<path d="M1.55354 20.9402C1.13133 20.9402 0.789062 20.5979 0.789062 20.1757V1.18353C0.789062 0.840547 1.06711 0.5625 1.4101 0.5625C3.12503 0.5625 4.51527 1.95273 4.51527 3.66767V17.2646C4.51527 17.6868 4.85753 18.0291 5.27974 18.0291H12.7752C13.1974 18.0291 13.5397 18.3713 13.5397 18.7936V20.1757C13.5397 20.5979 13.1974 20.9402 12.7752 20.9402H1.55354Z" fill="white"/>
<path d="M22.0405 21.2895C20.6432 21.2895 19.3817 20.9693 18.2561 20.3288C17.1498 19.6884 16.2668 18.8054 15.607 17.6798C14.9665 16.5347 14.6463 15.215 14.6463 13.7207C14.6463 12.2263 14.9762 10.9163 15.6361 9.79068C16.2959 8.64565 17.1789 7.75291 18.2852 7.11247C19.4108 6.47203 20.6723 6.15181 22.0696 6.15181C23.4475 6.15181 24.6896 6.47203 25.7958 7.11247C26.9214 7.75291 27.8045 8.64565 28.4449 9.79068C29.1047 10.9163 29.4347 12.2263 29.4347 13.7207C29.4347 15.215 29.1047 16.5347 28.4449 17.6798C27.8045 18.8054 26.9214 19.6884 25.7958 20.3288C24.6702 20.9693 23.4184 21.2895 22.0405 21.2895ZM22.0405 18.0582C23.0108 18.0582 23.8551 17.6992 24.5731 16.9811C25.2912 16.2436 25.6502 15.1568 25.6502 13.7207C25.6502 12.2845 25.2912 11.2074 24.5731 10.4893C23.8551 9.75186 23.0206 9.38312 22.0696 9.38312C21.0798 9.38312 20.2259 9.75186 19.5078 10.4893C18.8092 11.2074 18.4598 12.2845 18.4598 13.7207C18.4598 15.1568 18.8092 16.2436 19.5078 16.9811C20.2259 17.6992 21.0701 18.0582 22.0405 18.0582Z" fill="white"/>
<path d="M38.8355 21.2895C37.3606 21.2895 36.0603 20.9693 34.9346 20.3288C33.809 19.6884 32.9163 18.7957 32.2564 17.6506C31.616 16.5056 31.2958 15.1956 31.2958 13.7207C31.2958 12.2457 31.616 10.9357 32.2564 9.79068C32.9163 8.64565 33.809 7.75291 34.9346 7.11247C36.0603 6.47203 37.3606 6.15181 38.8355 6.15181C40.6792 6.15181 42.2318 6.63699 43.4933 7.60735C44.5195 8.38094 45.2438 9.39854 45.6664 10.6602C45.8203 11.1196 45.4551 11.5664 44.9706 11.5664H42.5606C42.2172 11.5664 41.926 11.3318 41.7745 11.0236C41.5565 10.5797 41.2366 10.2173 40.8151 9.93623C40.2522 9.52868 39.5827 9.3249 38.8064 9.3249C37.7778 9.3249 36.9045 9.71305 36.1864 10.4893C35.4683 11.2656 35.1093 12.3427 35.1093 13.7207C35.1093 15.0986 35.4683 16.1757 36.1864 16.952C36.9045 17.7283 37.7778 18.1164 38.8064 18.1164C39.5827 18.1164 40.2522 17.9223 40.8151 17.5342C41.2391 17.2515 41.5602 16.8814 41.7783 16.4237C41.9269 16.1119 42.2194 15.8749 42.5648 15.8749H44.9638C45.4505 15.8749 45.8159 16.3257 45.6555 16.7852C45.2314 18 44.5107 19.0066 43.4933 19.8049C42.2318 20.7946 40.6792 21.2895 38.8355 21.2895Z" fill="white"/>
<path d="M55.2032 21.2895C53.8059 21.2895 52.5444 20.9693 51.4188 20.3288C50.3126 19.6884 49.4296 18.8054 48.7697 17.6798C48.1293 16.5347 47.809 15.215 47.809 13.7207C47.809 12.2263 48.139 10.9163 48.7988 9.79068C49.4587 8.64565 50.3417 7.75291 51.4479 7.11247C52.5735 6.47203 53.835 6.15181 55.2323 6.15181C56.6103 6.15181 57.8523 6.47203 58.9585 7.11247C60.0842 7.75291 60.9672 8.64565 61.6076 9.79068C62.2675 10.9163 62.5974 12.2263 62.5974 13.7207C62.5974 15.215 62.2675 16.5347 61.6076 17.6798C60.9672 18.8054 60.0842 19.6884 58.9585 20.3288C57.8329 20.9693 56.5812 21.2895 55.2032 21.2895ZM55.2032 18.0582C56.1736 18.0582 57.0178 17.6992 57.7359 16.9811C58.454 16.2436 58.813 15.1568 58.813 13.7207C58.813 12.2845 58.454 11.2074 57.7359 10.4893C57.0178 9.75186 56.1833 9.38312 55.2323 9.38312C54.2426 9.38312 53.3886 9.75186 52.6706 10.4893C51.9719 11.2074 51.6226 12.2845 51.6226 13.7207C51.6226 15.1568 51.9719 16.2436 52.6706 16.9811C53.3886 17.6992 54.2329 18.0582 55.2032 18.0582Z" fill="white"/>
<path d="M72.6832 21.2895C71.1888 21.2895 69.84 20.9984 68.6368 20.4162C67.4335 19.8146 66.4729 18.9121 65.7548 17.7089C65.0561 16.5056 64.7068 14.9821 64.7068 13.1384V1.32698C64.7068 0.90477 65.0491 0.5625 65.4713 0.5625H67.6685C68.0907 0.5625 68.433 0.904768 68.433 1.32698V13.1675C68.433 14.7589 68.8114 15.9428 69.5683 16.7191C70.3446 17.4954 71.412 17.8835 72.7705 17.8835C74.1096 17.8835 75.1673 17.4954 75.9436 16.7191C76.7199 15.9428 77.1081 14.7589 77.1081 13.1675V1.32698C77.1081 0.904769 77.4503 0.5625 77.8726 0.5625H80.0698C80.492 0.5625 80.8343 0.904768 80.8343 1.32698V13.1384C80.8343 14.9821 80.4655 16.5056 79.7281 17.7089C78.9906 18.9121 78.0008 19.8146 76.7587 20.4162C75.5361 20.9984 74.1776 21.2895 72.6832 21.2895Z" fill="white"/>
<path d="M85.4025 20.9402C84.9803 20.9402 84.638 20.5979 84.638 20.1757V1.18353C84.638 0.840546 84.9161 0.5625 85.2591 0.5625C86.974 0.5625 88.3643 1.95273 88.3643 3.66767V20.1757C88.3643 20.5979 88.022 20.9402 87.5998 20.9402H85.4025Z" fill="white"/>
</svg>
