<svg width="29" height="30" viewBox="0 0 29 30" fill="none" xmlns="http://www.w3.org/2000/svg">
<path d="M14.5016 0.585938C6.54856 0.585938 0.101562 7.03294 0.101562 14.9859C0.101562 22.9389 6.54856 29.3859 14.5016 29.3859C22.4546 29.3859 28.9016 22.9389 28.9016 14.9859C28.9016 7.03294 22.4546 0.585938 14.5016 0.585938ZM20.3591 12.3819C20.3651 12.5049 20.3666 12.6279 20.3666 12.7479C20.3666 16.4979 17.5151 20.8194 12.2981 20.8194C10.7565 20.822 9.24701 20.3793 7.95106 19.5444C8.17156 19.5714 8.39806 19.5819 8.62756 19.5819C9.95656 19.5819 11.1791 19.1304 12.1496 18.3684C11.5581 18.3568 10.9851 18.161 10.5102 17.8082C10.0354 17.4554 9.68244 16.9633 9.50056 16.4004C9.9253 16.4812 10.3628 16.4643 10.7801 16.3509C10.1381 16.2211 9.56086 15.8733 9.14613 15.3664C8.73139 14.8596 8.50472 14.2249 8.50456 13.5699V13.5354C8.88706 13.7469 9.32506 13.8759 9.79006 13.8909C9.18826 13.4903 8.76224 12.8749 8.59913 12.1706C8.43602 11.4663 8.54814 10.7263 8.91256 10.1019C9.625 10.9779 10.5135 11.6946 11.5204 12.2054C12.5274 12.7162 13.6304 13.0099 14.7581 13.0674C14.6147 12.4589 14.6764 11.82 14.9336 11.2502C15.1908 10.6803 15.629 10.2114 16.1802 9.91633C16.7313 9.62124 17.3646 9.51652 17.9814 9.61845C18.5982 9.72037 19.1641 10.0232 19.5911 10.4799C20.2258 10.3544 20.8345 10.1215 21.3911 9.79144C21.1795 10.4486 20.7366 11.0067 20.1446 11.3619C20.7068 11.2942 21.2559 11.1431 21.7736 10.9134C21.3933 11.4833 20.9143 11.9806 20.3591 12.3819Z" fill="white"/>
</svg>
