<svg width="29" height="30" viewBox="0 0 29 30" fill="none" xmlns="http://www.w3.org/2000/svg">
<path d="M19.0016 14.9859C19.0016 16.1794 18.5275 17.324 17.6835 18.1679C16.8396 19.0118 15.695 19.4859 14.5016 19.4859C13.3081 19.4859 12.1635 19.0118 11.3196 18.1679C10.4757 17.324 10.0016 16.1794 10.0016 14.9859C10.0016 14.7294 10.0286 14.4789 10.0751 14.2359H8.50156V20.2314C8.50156 20.6484 8.83906 20.9859 9.25606 20.9859H19.7486C19.9484 20.9855 20.1399 20.9059 20.2811 20.7644C20.4223 20.623 20.5016 20.4313 20.5016 20.2314V14.2359H18.9281C18.9746 14.4789 19.0016 14.7294 19.0016 14.9859ZM14.5016 17.9859C14.8956 17.9858 15.2858 17.9081 15.6498 17.7572C16.0139 17.6063 16.3446 17.3852 16.6232 17.1065C16.9018 16.8278 17.1227 16.4969 17.2734 16.1328C17.4241 15.7687 17.5017 15.3785 17.5016 14.9844C17.5015 14.5904 17.4238 14.2002 17.2729 13.8362C17.122 13.4721 16.9009 13.1414 16.6221 12.8628C16.3434 12.5842 16.0126 12.3633 15.6485 12.2126C15.2844 12.0619 14.8941 11.9843 14.5001 11.9844C13.7042 11.9846 12.941 12.301 12.3784 12.8639C11.8158 13.4268 11.4999 14.1901 11.5001 14.9859C11.5003 15.7818 11.8166 16.545 12.3795 17.1076C12.9424 17.6702 13.7057 17.9861 14.5016 17.9859ZM18.1016 11.8359H19.9001C20.0196 11.8359 20.1342 11.7886 20.2188 11.7042C20.3034 11.6199 20.3512 11.5054 20.3516 11.3859V9.58744C20.3516 9.46769 20.304 9.35285 20.2193 9.26818C20.1347 9.18351 20.0198 9.13594 19.9001 9.13594H18.1016C17.9818 9.13594 17.867 9.18351 17.7823 9.26818C17.6976 9.35285 17.6501 9.46769 17.6501 9.58744V11.3859C17.6516 11.6334 17.8541 11.8359 18.1016 11.8359ZM14.5016 0.585938C10.6824 0.585938 7.01975 2.10308 4.31923 4.8036C1.6187 7.50412 0.101563 11.1668 0.101562 14.9859C0.101563 18.8051 1.6187 22.4678 4.31923 25.1683C7.01975 27.8688 10.6824 29.3859 14.5016 29.3859C16.3926 29.3859 18.2651 29.0135 20.0122 28.2898C21.7593 27.5661 23.3467 26.5054 24.6839 25.1683C26.0211 23.8311 27.0818 22.2437 27.8054 20.4966C28.5291 18.7495 28.9016 16.877 28.9016 14.9859C28.9016 13.0949 28.5291 11.2224 27.8054 9.4753C27.0818 7.72821 26.0211 6.14076 24.6839 4.8036C23.3467 3.46644 21.7593 2.40574 20.0122 1.68207C18.2651 0.958405 16.3926 0.585938 14.5016 0.585938ZM22.0016 20.8194C22.0016 21.7359 21.2516 22.4859 20.3351 22.4859H8.66806C7.75156 22.4859 7.00156 21.7359 7.00156 20.8194V9.15244C7.00156 8.23594 7.75156 7.48594 8.66806 7.48594H20.3351C21.2516 7.48594 22.0016 8.23594 22.0016 9.15244V20.8194Z" fill="white"/>
</svg>
